<?xml version="1.0" encoding="utf-8"?>
<!-- Generator: Adobe Illustrator 19.0.0, SVG Export Plug-In . SVG Version: 6.00 Build 0)  -->
<svg version="1.1" id="Layer_1" xmlns="http://www.w3.org/2000/svg" xmlns:xlink="http://www.w3.org/1999/xlink" x="0px" y="0px"
	 viewBox="0 0 599.9 591.1" style="enable-background:new 0 0 599.9 591.1;" xml:space="preserve">
<style type="text/css">
	.st0{fill:none;}
	.st1{fill:#35383A;}
</style>
<g id="BG">
	<rect x="-261" y="-265.4" class="st0" width="1122" height="1122"/>
</g>
<g id="Object">
	<path class="st1" d="M599.8,285.9c-0.3-11.4-1.4-22.8-3.1-34.1l-59.4-9.8l-20.1-56.2l39.6-45.4c-12-19.9-26.2-38.3-42.4-54.9
		l-53.8,27L411.2,79l5.3-60c-20.7-8.8-42.4-15.1-64.6-19l-28,53.4l-59.7,1.4l-30.7-52C210.9,8,188.9,15.7,168.1,26l8.8,59.6
		l-47.5,36.3L74.2,98c-15.3,17.5-28.5,36.6-39.3,57.1l42.1,43l-17,57.3L1.3,268.7c-1.1,12-1.5,24.1-1.1,36.2
		C0.5,316,1.5,327,3.1,338l59.4,10l19.9,56.2l-39.8,45.3c12,19.9,26.2,38.4,42.4,55.1l54-26.9l49.3,33.7l-5.6,60.1
		c21.4,9.1,43.7,15.7,66.6,19.6l27.8-53.5l59.7-1.7l30.8,51.9c22.6-5.3,44.6-13.1,65.4-23.4l-9-59.6l47.3-36.5l55.3,23.7
		c15.2-17.5,28.4-36.7,39.2-57.3l-42.3-42.8l16.8-57.3l58.8-13.3C599.9,309.5,600.2,297.7,599.8,285.9z M388.7,396.4
		C332.9,445.4,248,440,199,384.2l-0.1-0.1c-48.9-55.9-43.5-140.8,12.4-189.7c55.8-49,140.7-43.5,189.7,12.3S444.5,347.4,388.7,396.4
		z"/>
	<path class="st1" d="M447.8,165.6C376.1,83.9,251.6,75.8,170,147.5c-81.6,71.8-89.6,196.2-17.8,277.8c0,0,0,0,0,0.1
		c71.7,81.6,196.1,89.6,277.7,18S519.5,247.2,447.8,165.6z M417.1,428.8c-73.6,64.7-185.8,57.4-250.5-16.2S109,226.8,182.6,162l0,0
		c73.7-64.7,186-57.3,250.6,16.3S490.8,364.1,417.1,428.8z"/>
	<path class="st1" d="M186.2,510.1l2,1.3l-4.6,59.5l-1,0.5c21.4,9.1,43.7,15.7,66.6,19.6l-0.5-1l28.3-52.6l59.7-1.7l31.3,50.8
		l-0.6,1c22.6-5.3,44.6-13.1,65.4-23.4l-1-0.4l-8-59.2l47.3-36.5l55.3,22.7l0.1,1c15.2-17.5,28.4-36.7,39.2-57.3l-1,0.3l-41.3-43.1
		l16.7-57.3l58-14.1l0.8,0.7c1-11.7,1.3-23.5,0.9-35.3c-0.3-11.4-1.4-22.8-3.1-34.1l-0.6,0.8l-16.7-3
		C467.9,410.5,310.8,480.2,186.2,510.1z"/>
	<path class="st1" d="M429.9,443.3c27-23.7,47-54.3,57.8-88.5c-10.9,10-22,19.4-33.2,28.2c-31.4,55.4-90,89.7-153.6,89.9
		c-13.5,5.6-26.8,10.8-40,15.4C321.1,500.6,383.7,483.9,429.9,443.3z"/>
	<path class="st1" d="M179,72.6l-5.7-48.3c0,0,28.6-15.1,50.4-18.7C223.7,5.6,188.4,18.6,179,72.6z"/>
</g>
</svg>
