<svg xmlns="http://www.w3.org/2000/svg" viewBox="0 0 1122 1122"><defs><style>.cls-1{fill:#fff;}.cls-2{fill:#516784;}.cls-3{fill:#d8d9da;}.cls-4{fill:#3e5770;}.cls-5{fill:#b1b2b3;}.cls-6{fill:#65829e;}</style></defs><title>gear</title><g id="BG"><rect class="cls-1" width="1122" height="1122"/></g><g id="Object"><path class="cls-2" d="M860.84,551.37a283.06,283.06,0,0,0-3.11-34.08l-59.38-9.84-20.13-56.18,39.57-45.36A299.36,299.36,0,0,0,775.37,351l-53.84,27-49.36-33.56,5.34-60a296.75,296.75,0,0,0-64.59-19l-28,53.43-59.7,1.4-30.66-52a298.65,298.65,0,0,0-65.46,23.13l8.8,59.63-47.45,36.29-55.29-23.87a298.08,298.08,0,0,0-39.29,57.15l42.07,43L321,520.86,262.26,534.1a303,303,0,0,0-1.13,36.23,324.21,324.21,0,0,0,2.94,33.07l59.41,10,19.94,56.25L303.59,714.9A303.63,303.63,0,0,0,346,770l53.95-26.86,49.26,33.71-5.58,60.06a300.93,300.93,0,0,0,66.57,19.63L538,803l59.69-1.65,30.76,51.88a301.9,301.9,0,0,0,65.4-23.39l-9-59.6,47.28-36.5,55.34,23.72a298.63,298.63,0,0,0,39.17-57.28l-42.32-42.84L801.1,600l58.8-13.33A304.51,304.51,0,0,0,860.84,551.37ZM649.7,661.85A134.42,134.42,0,0,1,459.9,649.57C411,593.64,416.44,508.8,472.32,459.91A134.39,134.39,0,1,1,649.7,661.85Z"/><path class="cls-3" d="M708.83,431c-71.7-81.64-196.2-89.77-277.86-18.08A196.83,196.83,0,0,0,413.2,690.76c71.68,81.61,196.1,89.64,277.68,18S780.55,512.6,708.83,431ZM678.14,694.22c-73.59,64.66-185.81,57.42-250.47-16.2a177.54,177.54,0,0,1,16-250.6c73.66-64.67,186-57.33,250.63,16.31S751.8,629.55,678.14,694.22Z"/><path class="cls-4" d="M447.24,775.55l2,1.35-4.57,59.54-1,.51a300.93,300.93,0,0,0,66.57,19.63l-.54-1L538,803l59.69-1.65,31.35,50.85-.59,1a301.9,301.9,0,0,0,65.4-23.39l-1-.42-8-59.17,47.28-36.5,55.29,22.7.06,1a298.63,298.63,0,0,0,39.17-57.28l-1,.28-41.28-43.12L801.1,600l58-14.07.76.74a304.51,304.51,0,0,0,.93-35.27,283.06,283.06,0,0,0-3.11-34.08l-.63.85-16.66-3C728.91,675.94,571.81,745.65,447.24,775.55Z"/><path class="cls-5" d="M690.88,708.72a195.69,195.69,0,0,0,57.79-88.54q-16.37,14.94-33.25,28.24a177.34,177.34,0,0,1-153.63,89.89q-20.19,8.45-40,15.36A196.45,196.45,0,0,0,690.88,708.72Z"/><path class="cls-6" d="M440,338l-5.71-48.31s28.57-15.06,50.39-18.7C484.68,271,449.36,284,440,338Z"/></g></svg>