<?xml version="1.0" encoding="utf-8"?>
<!-- Generator: Adobe Illustrator 19.0.0, SVG Export Plug-In . SVG Version: 6.00 Build 0)  -->
<svg version="1.1" xmlns="http://www.w3.org/2000/svg" xmlns:xlink="http://www.w3.org/1999/xlink" x="0px" y="0px"
	 viewBox="0 0 478.7 590.8" style="enable-background:new 0 0 478.7 590.8;" xml:space="preserve">
<style type="text/css">
	.st0{fill:none;}
	.st1{fill:#72716F;}
	.st2{fill:#EAA700;}
</style>
<g id="Bg">
</g>
<g id="Object">
	<g>
		<path class="st0" d="M179.2,94.3c-23.1,14.7-36.8,40.3-36.8,67.6v74.4h193.2v-75C327.7,94.5,251.7,48.2,179.2,94.3z"/>
		<path class="st1" d="M261.4,458.4v-41.4c12-7.4,20.1-20.6,20.1-35.8c0-32-35.7-55.6-69.4-33.4c-2.5,1.6-4.6,3.8-6.3,6.3
			c-16.5,25.4-7.4,51.3,11.5,62.9v41.4H261.4z"/>
		<path class="st2" d="M52.5,590.8h373.6c24.5,0,45.1-16.8,50.8-39.6H1.7C7.5,573.9,28,590.8,52.5,590.8z"/>
		<path class="st1" d="M0,538.2c0,4.5,0.6,8.8,1.7,13H477c1.1-4.2,1.7-8.5,1.7-13v-8.4H0V538.2z"/>
		<path class="st2" d="M412,172.6c0-124.3-132-218.3-263-149.3c-51,26.9-82.2,80.6-82.2,138.3v74.6H32.8C14.7,236.3,0,251,0,269.2
			v260.7h478.7V269.2c0-18.1-14.7-32.8-32.8-32.8H412h-1.1v-63.7H412z M261.4,416.9v41.4h-44v-41.4c-18.9-11.6-28.1-37.5-11.5-62.9
			c1.6-2.5,3.8-4.7,6.3-6.3c33.7-22.2,69.4,1.4,69.4,33.4C281.5,396.3,273.4,409.5,261.4,416.9z M335.6,236.3H142.4v-74.4
			c0-27.3,13.8-53,36.8-67.6c72.5-46,148.5,0.2,156.3,67.1V236.3z"/>
	</g>
</g>
</svg>
