<svg xmlns="http://www.w3.org/2000/svg" viewBox="0 0 1122 1122"><defs><style>.cls-1{fill:#fff;}.cls-2{fill:#72716f;}.cls-3{fill:#f2cb30;}.cls-4{fill:#eab531;}.cls-5{fill:#58595a;}.cls-6{fill:#f7db5e;}.cls-7{fill:#3e3d40;}</style></defs><title>lock</title><g id="BG"><rect class="cls-1" width="1122" height="1122"/></g><g id="Object"><g id="_Group_" data-name="&lt;Group&gt;"><g id="_Group_2" data-name="&lt;Group&gt;"><g id="_Group_3" data-name="&lt;Group&gt;"><path id="_Path_" data-name="&lt;Path&gt;" class="cls-2" d="M722.54,595.2H677.88V447.54a116.88,116.88,0,1,0-233.76,0V595.2H399.46V447.54C399.46,358.47,471.93,286,561,286s161.54,72.47,161.54,161.54Z"/></g><g id="_Group_4" data-name="&lt;Group&gt;"><rect id="_Path_2" data-name="&lt;Path&gt;" class="cls-3" x="331.11" y="525.13" width="459.79" height="310.87" rx="17.32" ry="17.32"/></g></g></g><path class="cls-4" d="M790.89,818.68V649.43c-140.07,118.51-342,163-456.47,179.37a17.25,17.25,0,0,0,14,7.2H773.58A17.31,17.31,0,0,0,790.89,818.68Z"/><path class="cls-5" d="M599,633.75a38,38,0,1,0-60.59,30.5l-12.09,85.92h69.37l-12.09-85.92A37.9,37.9,0,0,0,599,633.75Z"/><path class="cls-6" d="M345.6,557.89v59.49c1.57-25.26,13.73-80.23,89.76-80.23h-69A20.8,20.8,0,0,0,345.6,557.89Z"/><path class="cls-7" d="M526.31,750.16s51.49-14.55,57.28-85.92l12.09,85.92Z"/></g></svg>