<?xml version="1.0" encoding="utf-8"?>
<!-- Generator: Adobe Illustrator 19.0.0, SVG Export Plug-In . SVG Version: 6.00 Build 0)  -->
<svg version="1.1" id="Layer_1" xmlns="http://www.w3.org/2000/svg" xmlns:xlink="http://www.w3.org/1999/xlink" x="0px" y="0px"
	 viewBox="586.1 121 459.8 550" style="enable-background:new 586.1 121 459.8 550;" xml:space="preserve">
<style type="text/css">
	.st0{fill:#72716F;}
	.st1{fill:#F2CB30;}
	.st2{fill:#EAA700;}
	.st3{fill:#58595A;}
	.st4{fill:#F7DB5E;}
	.st5{fill:#1E1D21;}
</style>
<title>lock</title>
<g>
	<path class="st0" d="M977.5,430.2h-44.7V282.5c0-64.6-52.3-116.9-116.9-116.9S699.1,218,699.1,282.5v147.7h-44.7V282.5
		c0-89.1,72.5-161.5,161.5-161.5s161.5,72.5,161.5,161.5V430.2z"/>
	<path class="st1" d="M603.4,360.1h425.2c9.6,0,17.3,7.8,17.3,17.3v276.2c0,9.6-7.8,17.3-17.3,17.3H603.4c-9.6,0-17.3-7.8-17.3-17.3
		V377.5C586.1,367.9,593.9,360.1,603.4,360.1z"/>
	<path class="st2" d="M1045.9,653.7V484.4c-140.1,118.5-342,163-456.5,179.4c3.2,4.5,8.4,7.2,14,7.2h425.2
		C1038.1,671,1045.9,663.3,1045.9,653.7L1045.9,653.7z"/>
	<path class="st3" d="M854,468.8c0-21-17-38-37.9-38.1c-21,0-38,17-38.1,37.9c0,12.1,5.7,23.4,15.4,30.6l-12.1,85.9h69.4l-12.1-85.9
		C848.3,492.1,854,480.8,854,468.8z"/>
	<path class="st4" d="M600.6,392.9v59.5c1.6-25.3,13.7-80.2,89.8-80.2h-69C609.9,372.2,600.6,381.4,600.6,392.9z"/>
	<path class="st5" d="M781.3,585.2c0,0,51.5-14.5,57.3-85.9l12.1,85.9H781.3z"/>
</g>
</svg>
